<svg width="16" height="16" viewBox="0 0 16 16" fill="none" xmlns="http://www.w3.org/2000/svg">
<g id="icon/16_&#231;&#137;&#169;&#229;&#147;&#129;&#229;&#128;&#159;&#231;&#148;&#168;" clip-path="url(#clip0_2235_31131)">
<path id="Vector" d="M5.74822 1.10617C3.78081 0.554193 1.875 2.22412 1.875 4.49999C1.875 6.77586 3.78081 8.44578 5.74822 7.8938C7.31799 7.45338 9.50015 6.30633 11.1471 6.4615C11.7436 6.5177 12.169 7.05243 12.7276 7.20947C13.4824 7.42173 13.778 6.25 13.9402 5.72706C14.1866 4.93238 14.1866 4.06759 13.9402 3.27291C13.778 2.74998 13.4824 1.57824 12.7276 1.7905C12.169 1.94755 11.7436 2.48228 11.1471 2.53848C9.50015 2.69365 7.31799 1.54659 5.74822 1.10617Z" stroke="black" stroke-linecap="round" stroke-linejoin="round"/>
<path id="Vector_2" d="M3.57617 7.64941C4.50973 8.63605 4.44338 10.2867 4.47369 11.7626C4.48627 12.3756 4.93906 12.8994 5.51377 12.8994H6.34425C6.80025 12.8994 7.07402 11.8464 7.21473 11.515C7.40193 11.0743 7.322 10.5714 7.09854 10.1503C6.6266 9.26102 6.29838 8.69941 6.63866 7.64941" stroke="black" stroke-linecap="round" stroke-linejoin="round"/>
<path id="Vector 6606" d="M11.0625 2.75L11.3204 3.81359C11.4302 4.26671 11.4302 4.73328 11.3204 5.1864L11.0625 6.24999" stroke="black" stroke-linecap="round" stroke-linejoin="round"/>
<path id="Vector 6607" d="M5.95854 12.8994C5.95854 13.5517 5.95854 13.8779 5.84013 14.1352C5.68225 14.4782 5.37943 14.7507 4.99827 14.8928C4.71241 14.9994 3.96112 14.9994 3.23633 14.9994" stroke="black" stroke-linecap="round" stroke-linejoin="round"/>
</g>
<defs>
<clipPath id="clip0_2235_31131">
<rect width="16" height="16" fill="white"/>
</clipPath>
</defs>
</svg>
