<svg width="16" height="16" viewBox="0 0 16 16" fill="none" xmlns="http://www.w3.org/2000/svg">
<g id="icon/16_&#229;&#174;&#162;&#230;&#136;&#191;&#230;&#137;&#147;&#230;&#137;&#171;" clip-path="url(#clip0_2235_31972)">
<path id="Vector" d="M10.0996 4.64588L13.4858 1.25974C13.8321 0.913421 14.3936 0.913421 14.7399 1.25974C15.0862 1.60606 15.0862 2.16755 14.7399 2.51387L11.3537 5.90001" stroke="black" stroke-linejoin="round"/>
<path id="Vector_2" d="M8.70001 11.0025L7.61433 14.2595C7.46543 14.7062 7.10234 15.0639 6.63719 14.9908C6.19038 14.9206 5.59831 14.7172 4.89528 14.2778M4.99783 7.30029L1.74078 8.38598C1.29409 8.53487 0.936446 8.89797 1.00952 9.36311C1.07971 9.80993 1.28309 10.402 1.72249 11.105M4.89528 14.2778C4.36968 13.9493 3.78206 13.4889 3.14674 12.8536C2.51142 12.2182 2.05099 11.6306 1.72249 11.105M4.89528 14.2778L5.76137 12.2272M1.72249 11.105L3.58931 10.3161" stroke="black" stroke-linecap="round" stroke-linejoin="round"/>
<path id="Vector_3" d="M10.853 5.36035L10.6399 5.14716C10.2401 4.74745 10.0403 4.54759 9.79839 4.50928C9.72027 4.49691 9.64069 4.49691 9.56256 4.50928C9.32067 4.54759 9.12081 4.74745 8.7211 5.14716C8.43963 5.42863 8.29889 5.56937 8.13036 5.66766C8.07448 5.70026 8.01655 5.72922 7.95695 5.75437C7.7772 5.83022 7.57715 5.85879 7.17706 5.91595C6.02592 6.0804 5.45035 6.16262 5.27422 6.51799C5.24329 6.5804 5.22116 6.64679 5.20845 6.71528C5.13614 7.10525 5.54053 7.50964 6.34932 8.31843L7.68178 9.65089C8.49056 10.4597 8.89496 10.8641 9.28493 10.7918C9.35341 10.7791 9.41981 10.7569 9.48222 10.726C9.83758 10.5499 9.91981 9.97429 10.0843 8.82315C10.1414 8.42305 10.17 8.223 10.2458 8.04326C10.271 7.98365 10.3 7.92573 10.3325 7.86984C10.4308 7.70132 10.5716 7.56058 10.853 7.2791C11.2528 6.87939 11.4526 6.67954 11.4909 6.43764C11.5033 6.35952 11.5033 6.27994 11.4909 6.20182C11.4526 5.95992 11.2528 5.76006 10.853 5.36035Z" stroke="black" stroke-linejoin="round"/>
</g>
<defs>
<clipPath id="clip0_2235_31972">
<rect width="16" height="16" fill="white"/>
</clipPath>
</defs>
</svg>
