<svg width="16" height="16" viewBox="0 0 16 16" fill="none" xmlns="http://www.w3.org/2000/svg">
<g id="icon/16_&#229;&#174;&#162;&#230;&#136;&#191;&#233;&#128;&#129;&#233;&#164;&#144;" clip-path="url(#clip0_2235_31886)">
<path id="Vector 7169" d="M3.91802 1.5C3.08203 2.45455 3.91801 2.77273 4.33602 3.40909C4.75403 4.04545 4.33604 4.68182 3.5 5" stroke="black" stroke-linecap="round"/>
<path id="Vector 7170" d="M7.91802 0.5C7.08203 1.45455 7.91801 1.77273 8.33602 2.40909C8.75403 3.04545 8.33604 3.68182 7.5 4" stroke="black" stroke-linecap="round"/>
<path id="Vector 7171" d="M11.918 1.5C11.082 2.45455 11.918 2.77273 12.336 3.40909C12.754 4.04545 12.336 4.68182 11.5 5" stroke="black" stroke-linecap="round"/>
<line id="Line 6" x1="0.5" y1="15.5" x2="15.5" y2="15.5" stroke="black" stroke-linecap="round"/>
<line id="Line 7" x1="8" y1="6.5" x2="8" y2="5.5" stroke="black" stroke-linecap="round"/>
<path id="Ellipse 1868" d="M14.9044 12.0058C15.0098 12.548 14.5528 13 14.0005 13C12.7757 13 10.5467 13 8 13C5.45333 13 3.22429 13 1.9995 13C1.44721 13 0.99018 12.548 1.09565 12.0058C1.64826 9.16525 4.52913 7 8 7C11.4709 7 14.3517 9.16525 14.9044 12.0058Z" stroke="black" stroke-linecap="round"/>
</g>
<defs>
<clipPath id="clip0_2235_31886">
<rect width="16" height="16" fill="white" transform="matrix(1 0 0 -1 0 16)"/>
</clipPath>
</defs>
</svg>
