<svg width="16" height="16" viewBox="0 0 16 16" fill="none" xmlns="http://www.w3.org/2000/svg">
<g id="icon/16_&#229;&#174;&#162;&#230;&#136;&#191;&#231;&#148;&#168;&#229;&#147;&#129;" clip-path="url(#clip0_2235_31076)">
<path id="Rectangle 17711" d="M1 8.87123C1 6.89879 2.79084 5.2998 4.99994 5.2998C7.20905 5.2998 8.99989 6.89879 8.99989 8.87123V12.4427C8.99989 13.7895 8.99989 14.463 8.53127 14.8814C8.06264 15.2998 7.30841 15.2998 5.79993 15.2998H4.19996C2.69148 15.2998 1.93725 15.2998 1.46862 14.8814C1 14.463 1 13.7895 1 12.4427V8.87123Z" stroke="black" stroke-linecap="round" stroke-linejoin="round"/>
<path id="Vector" d="M8.99989 9.38937C6.08848 6.77121 4.5127 10.852 1 9.97306" stroke="black" stroke-linecap="round" stroke-linejoin="round"/>
<path id="Vector 6617" d="M3.25 5.5V4.66667C3.25 3.88099 3.25 3.48816 3.50628 3.24408C3.76256 3 4.17504 3 5 3C5.82496 3 6.23744 3 6.49372 3.24408C6.75 3.48816 6.75 3.88099 6.75 4.66667V5.5" stroke="black" stroke-linecap="round" stroke-linejoin="round"/>
<path id="Vector 6618" d="M5.02201 2.5V0.5M5.02201 0.5H3.40039M5.02201 0.5H8.81082C9.61258 0.5 10.2918 0.760062 10.9004 1.16667" stroke="black" stroke-linecap="round" stroke-linejoin="round"/>
<path id="Ellipse 1867" d="M14.9527 6.07867C15.1363 6.77684 14.7643 7.48499 14.1217 7.66037C13.4791 7.83575 12.8093 7.41195 12.6256 6.71378C12.442 6.01561 13.2903 4.5 13.2903 4.5C13.2903 4.5 14.769 5.3805 14.9527 6.07867Z" stroke="black" stroke-linecap="round" stroke-linejoin="round"/>
</g>
<defs>
<clipPath id="clip0_2235_31076">
<rect width="16" height="16" fill="white"/>
</clipPath>
</defs>
</svg>
