<svg width="120" height="120" viewBox="0 0 120 120" fill="none" xmlns="http://www.w3.org/2000/svg">
<g id="&#230;&#143;&#146;&#231;&#148;&#187;/120_&#230;&#144;&#156;&#231;&#180;&#162;&#230;&#151;&#160;&#232;&#174;&#162;&#229;&#141;&#149;">
<path id="Vector 339" d="M17 35H61" stroke="black" stroke-linecap="round"/>
<path id="Vector 340" d="M17 51H49" stroke="black" stroke-linecap="round"/>
<circle id="Ellipse 174" cx="72" cy="76" r="30" stroke="black"/>
<path id="Subtract" fill-rule="evenodd" clip-rule="evenodd" d="M88.1709 101.273C88.3522 101.513 88.5524 101.744 88.7715 101.963L102.032 115.224C104.57 117.762 108.686 117.762 111.224 115.224C113.763 112.685 113.763 108.57 111.224 106.031L97.9639 92.771C97.7447 92.5518 97.5138 92.3515 97.2731 92.1702C97.0927 92.4516 96.9077 92.7298 96.7182 93.0047C96.9053 93.1488 97.0853 93.3066 97.2568 93.4781L110.517 106.738C112.665 108.886 112.665 112.369 110.517 114.516C108.369 116.664 104.887 116.664 102.739 114.516L89.4786 101.256C89.3072 101.085 89.1495 100.905 89.0054 100.718C88.7305 100.907 88.4523 101.092 88.1709 101.273Z" fill="black"/>
<path id="Subtract_2" d="M80.2289 104.857L80.6902 105.05L81.0912 104.092L80.092 104.376L80.2289 104.857ZM81 47.3734L80.8502 47.8504L81.5 48.0545V47.3734H81ZM1.5 21C1.5 15.7533 5.7533 11.5 11 11.5V10.5C5.20101 10.5 0.5 15.201 0.5 21H1.5ZM1.5 101V21H0.5V101H1.5ZM11 110.5C5.75329 110.5 1.5 106.247 1.5 101H0.5C0.5 106.799 5.20101 111.5 11 111.5V110.5ZM71 110.5H11V111.5H71V110.5ZM79.7677 104.664C78.333 108.093 74.9471 110.5 71 110.5V111.5C75.3642 111.5 79.1054 108.838 80.6902 105.05L79.7677 104.664ZM80.092 104.376C77.5213 105.108 74.8068 105.5 72 105.5V106.5C74.9003 106.5 77.7069 106.095 80.3658 105.338L80.092 104.376ZM72 105.5C55.7076 105.5 42.5 92.2924 42.5 76H41.5C41.5 92.8447 55.1553 106.5 72 106.5V105.5ZM42.5 76C42.5 59.7076 55.7076 46.5 72 46.5V45.5C55.1553 45.5 41.5 59.1553 41.5 76H42.5ZM72 46.5C75.0842 46.5 78.057 46.9731 80.8502 47.8504L81.1498 46.8964C78.2608 45.989 75.187 45.5 72 45.5V46.5ZM80.5 21V47.3734H81.5V21H80.5ZM71 11.5C76.2467 11.5 80.5 15.7533 80.5 21H81.5C81.5 15.201 76.799 10.5 71 10.5V11.5ZM11 11.5H71V10.5H11V11.5Z" fill="black"/>
<circle id="Ellipse 175" cx="72" cy="76" r="24" stroke="black"/>
<path id="Ellipse 176" d="M88 76C88 67.1634 80.8366 60 72 60" stroke="black" stroke-linecap="round"/>
</g>
</svg>
