<?xml version="1.0" encoding="UTF-8"?>
<svg width="44px" height="44px" viewBox="0 0 44 44" version="1.1" xmlns="http://www.w3.org/2000/svg" xmlns:xlink="http://www.w3.org/1999/xlink">
    <title>icon删除@1x</title>
    <g id="icon删除" stroke="none" stroke-width="1" fill="none" fill-rule="evenodd">
        <g fill-rule="nonzero" id="路径">
            <path d="M22.0000256,0.0860201001 C9.90001152,0.0860201001 0.0860235376,9.89803152 0.0860235376,22.0000222 C0.0860235376,34.1029152 9.89867949,43.9140242 22.0000256,43.9140242 C34.1029186,43.9140242 43.9140277,34.1046339 43.9140277,22.0000222 C43.9140277,9.90000808 34.1028756,0.0860201001 22.0000256,0.0860201001 Z" fill="#FF4A4A"></path>
            <path d="M30.9837275,28.0806264 L30.9837275,28.0806265 C31.3705593,28.464398 31.5876454,28.9870662 31.5865325,29.5319665 L31.5865325,29.5319395 C31.5875638,30.6655595 30.6694236,31.5853798 29.5358035,31.5864153 C28.9899494,31.5869139 28.4663789,31.3699694 28.0808456,30.9835459 L21.9991706,24.9051794 L15.9216635,30.9855654 L15.9216635,30.9855654 C15.5361277,31.3722111 15.012375,31.589234 14.4663618,31.5885866 C13.3340222,31.5885866 12.4133184,30.669865 12.4133184,29.5335637 L12.4133184,29.533509 C12.4124399,28.9894295 12.6287219,28.4674918 13.0141796,28.0835054 L19.0952101,21.9991663 L13.0159413,15.9194678 L13.0159413,15.9194678 C12.6303831,15.5341927 12.4141761,15.0112062 12.4151214,14.4661469 L12.4151214,14.4661307 C12.4151213,13.3315396 13.3348901,12.4117666 14.4694855,12.4117666 C15.0140205,12.4117666 15.5362848,12.627959 15.9215001,13.0128357 L21.9989212,19.0938662 L28.0805963,13.0141677 L28.0805961,13.0141679 C28.4654822,12.6292401 28.9875987,12.4130988 29.5319361,12.4133481 C30.6655991,12.4133481 31.5863002,13.3318491 31.5863002,14.4674887 L31.5863002,14.4675126 C31.5873657,15.0130316 31.370232,15.5363185 30.9832632,15.9208291 L24.9057561,21.9983362 L30.9836929,28.0806988 L30.9837275,28.0806264 Z" fill="#FFFFFF"></path>
        </g>
    </g>
</svg>